<?xml version="1.0" encoding="UTF-8"?>
<svg width="44px" height="41px" viewBox="0 0 44 41" version="1.1" xmlns="http://www.w3.org/2000/svg" xmlns:xlink="http://www.w3.org/1999/xlink">
    <title>img-placeholder-user1</title>
    <defs>
        <path d="M34.21379,14.92285 C28.28694,10.23676 17.66409,3.25659 10.91962,0.62417 C6.25231,-1.19756 1.723187,1.07292 1.039337,6.07243 C-0.040519,13.97548 -0.326597,26.39589 0.40714,33.56437 C0.921021,38.584806 5.32256,41.193631 10.02607,39.468957 C16.371,37.142829 28.32976,30.69066 33.95243,26.27525 C37.90146,23.17404 38.15266,18.03652 34.21379,14.92285" id="path-1"></path>
        <linearGradient x1="-1.52423194e-07%" y1="4.24895984e-06%" x2="-1.52423194e-07%" y2="2559.9999%" id="linearGradient-3">
            <stop stop-color="#FF758C" offset="0%"></stop>
            <stop stop-color="#FF7EB3" offset="100%"></stop>
        </linearGradient>
        <path d="M34.21379,14.92285 C28.28694,10.23676 17.66409,3.25659 10.91962,0.62417 C6.25231,-1.19756 1.723187,1.07292 1.039337,6.07243 C-0.040519,13.97548 -0.326597,26.39589 0.40714,33.56437 C0.921021,38.584806 5.32256,41.193631 10.02607,39.468957 C16.371,37.142829 28.32976,30.69066 33.95243,26.27525 C37.90146,23.17404 38.15266,18.03652 34.21379,14.92285" id="path-4"></path>
        <linearGradient x1="20.4077503%" y1="14.0446687%" x2="60.6171045%" y2="72.3587263%" id="linearGradient-6">
            <stop stop-color="#FF758C" offset="0%"></stop>
            <stop stop-color="#FF7EB3" offset="100%"></stop>
        </linearGradient>
        <path d="M2,4 C3.10457,4 4,3.10457 4,2 C4,0.89543 3.10457,0 2,0 C0.89543,0 0,0.89543 0,2 C0,3.10457 0.89543,4 2,4 Z" id="path-7"></path>
    </defs>
    <g id="Page-1" stroke="none" stroke-width="1" fill="none" fill-rule="evenodd">
        <g id="img-placeholder-user1" transform="translate(2.000000, 1.000000)">
            <g id="Group-7" transform="translate(4.000000, 0.000000)">
                <g id="Group-3">
                    <mask id="mask-2" fill="white">
                        <use xlink:href="#path-1"></use>
                    </mask>
                    <g id="Clip-2"></g>
                    <path d="M34.21379,14.92285 C28.28694,10.23676 17.66409,3.25659 10.91962,0.62417 C6.25231,-1.19756 1.723187,1.07292 1.039337,6.07243 C-0.040519,13.97548 -0.326597,26.39589 0.40714,33.56437 C0.921021,38.584806 5.32256,41.193631 10.02607,39.468957 C16.371,37.142829 28.32976,30.69066 33.95243,26.27525 C37.90146,23.17404 38.15266,18.03652 34.21379,14.92285" id="Fill-1" fill="url(#linearGradient-3)" mask="url(#mask-2)"></path>
                </g>
                <g id="Group-6">
                    <mask id="mask-5" fill="white">
                        <use xlink:href="#path-4"></use>
                    </mask>
                    <g id="Clip-5"></g>
                    <path d="M34.21379,14.92285 C28.28694,10.23676 17.66409,3.25659 10.91962,0.62417 C6.25231,-1.19756 1.723187,1.07292 1.039337,6.07243 C-0.040519,13.97548 -0.326597,26.39589 0.40714,33.56437 C0.921021,38.584806 5.32256,41.193631 10.02607,39.468957 C16.371,37.142829 28.32976,30.69066 33.95243,26.27525 C37.90146,23.17404 38.15266,18.03652 34.21379,14.92285" id="Fill-4" fill="url(#linearGradient-6)" mask="url(#mask-5)"></path>
                </g>
            </g>
            <g id="Group-10" transform="translate(11.000000, 20.000000)" stroke="#2E2E2E" stroke-linecap="round" stroke-width="3">
                <path d="M12,3.080108 C12,1.37906 13.367556,0 15.054414,0 C16.741529,0 18.109085,1.37906 18.109085,3.080108" id="Stroke-8"></path>
                <path d="M0.05259257,3.646916 C-0.257469,1.974858 0.83519,0.3656957 2.493557,0.05302597 C4.151668,-0.2596438 5.74715,0.8424654 6.057468,2.514524" id="Stroke-9"></path>
            </g>
            <g id="Group-13" transform="translate(16.000000, 28.000000)">
                <mask id="mask-8" fill="white">
                    <use xlink:href="#path-7"></use>
                </mask>
                <g id="Clip-12"></g>
                <polygon id="Fill-11" fill="#2E2E2E" mask="url(#mask-8)" points="-5 9 9 9 9 -5 -5 -5"></polygon>
            </g>
            <path d="M0,15.121552 C0,16.8226 1.367556,18.20166 3.054414,18.20166 C4.741529,18.20166 6.109085,16.8226 6.109085,15.121552 C6.109085,12.240504 6.109085,9.702701 6.109085,7.50814 C6.109085,4.21631 7.334671,1 12.23116,1" id="Stroke-14" stroke="#2E2E2E" stroke-width="3" stroke-linecap="round"></path>
        </g>
    </g>
</svg>