<?xml version="1.0" encoding="UTF-8"?>
<svg width="38px" height="40px" viewBox="0 0 38 40" version="1.1" xmlns="http://www.w3.org/2000/svg" xmlns:xlink="http://www.w3.org/1999/xlink">
    <title>img-placeholder-user2</title>
    <defs>
        <path d="M34.21379,14.92285 C28.28694,10.23676 17.66409,3.25659 10.91962,0.62417 C6.25231,-1.19756 1.723187,1.07292 1.039337,6.07243 C-0.040519,13.97548 -0.326597,26.39589 0.40714,33.56437 C0.921021,38.584806 5.32256,41.193631 10.02607,39.468957 C16.371,37.142829 28.32976,30.69066 33.95243,26.27525 C37.90146,23.17404 38.15266,18.03652 34.21379,14.92285" id="path-1"></path>
        <linearGradient x1="-1.52423194e-07%" y1="4.24895984e-06%" x2="-1.52423194e-07%" y2="2559.9999%" id="linearGradient-3">
            <stop stop-color="#FF758C" offset="0%"></stop>
            <stop stop-color="#FF7EB3" offset="100%"></stop>
        </linearGradient>
        <path d="M34.21379,14.92285 C28.28694,10.23676 17.66409,3.25659 10.91962,0.62417 C6.25231,-1.19756 1.723187,1.07292 1.039337,6.07243 C-0.040519,13.97548 -0.326597,26.39589 0.40714,33.56437 C0.921021,38.584806 5.32256,41.193631 10.02607,39.468957 C16.371,37.142829 28.32976,30.69066 33.95243,26.27525 C37.90146,23.17404 38.15266,18.03652 34.21379,14.92285" id="path-4"></path>
        <linearGradient x1="20.4077503%" y1="14.0446687%" x2="60.6171045%" y2="72.3587263%" id="linearGradient-6">
            <stop stop-color="#FF758C" offset="0%"></stop>
            <stop stop-color="#FF7EB3" offset="100%"></stop>
        </linearGradient>
        <path d="M0.7003,1.74978 C0.25167,1.83678 -0.06442,2.26081 0.01119,2.71126 C0.01165,2.714 0.0121,2.71719 0.01301,2.71946 C0.51766,5.69135 3.35201,7.684914 6.32618,7.145191 C8.94645,6.66923 10.87306,4.26986 10.7724,1.60813 C10.76056,1.29022 10.72093,0.98142 10.65717,0.68355 C10.55924,0.22353 10.11061,-0.07343 9.64923,0.01584 L0.7003,1.74978 Z" id="path-7"></path>
    </defs>
    <g id="Page-1" stroke="none" stroke-width="1" fill="none" fill-rule="evenodd">
        <g id="img-placeholder-user2">
            <g id="Group-7">
                <g id="Group-3">
                    <mask id="mask-2" fill="white">
                        <use xlink:href="#path-1"></use>
                    </mask>
                    <g id="Clip-2"></g>
                    <path d="M34.21379,14.92285 C28.28694,10.23676 17.66409,3.25659 10.91962,0.62417 C6.25231,-1.19756 1.723187,1.07292 1.039337,6.07243 C-0.040519,13.97548 -0.326597,26.39589 0.40714,33.56437 C0.921021,38.584806 5.32256,41.193631 10.02607,39.468957 C16.371,37.142829 28.32976,30.69066 33.95243,26.27525 C37.90146,23.17404 38.15266,18.03652 34.21379,14.92285" id="Fill-1" fill="url(#linearGradient-3)" mask="url(#mask-2)"></path>
                </g>
                <g id="Group-6">
                    <mask id="mask-5" fill="white">
                        <use xlink:href="#path-4"></use>
                    </mask>
                    <g id="Clip-5"></g>
                    <path d="M34.21379,14.92285 C28.28694,10.23676 17.66409,3.25659 10.91962,0.62417 C6.25231,-1.19756 1.723187,1.07292 1.039337,6.07243 C-0.040519,13.97548 -0.326597,26.39589 0.40714,33.56437 C0.921021,38.584806 5.32256,41.193631 10.02607,39.468957 C16.371,37.142829 28.32976,30.69066 33.95243,26.27525 C37.90146,23.17404 38.15266,18.03652 34.21379,14.92285" id="Fill-4" fill="url(#linearGradient-6)" mask="url(#mask-5)"></path>
                </g>
            </g>
            <g id="Group-11" transform="translate(7.000000, 3.000000)" stroke="#2E2E2E" stroke-linecap="round" stroke-width="3">
                <path d="M12,20.080108 C12,18.37906 13.367556,17 15.054414,17 C16.741529,17 18.109085,18.37906 18.109085,20.080108" id="Stroke-8"></path>
                <path d="M15,3.080108 C15,1.37906 16.367556,0 18.054414,0 C19.741529,0 21.109085,1.37906 21.109085,3.080108" id="Stroke-9"></path>
                <path d="M0.05259257,21.646916 C-0.257469,19.974858 0.83519,18.3656957 2.493557,18.053026 C4.151668,17.7403562 5.74715,18.8424654 6.057468,20.514524" id="Stroke-10"></path>
            </g>
            <g id="Group-14" transform="translate(10.000000, 27.000000)">
                <mask id="mask-8" fill="white">
                    <use xlink:href="#path-7"></use>
                </mask>
                <g id="Clip-13"></g>
                <polygon id="Fill-12" fill="#2E2E2E" mask="url(#mask-8)" points="-5 12.233412 15.77617 12.233412 15.77617 -4.999998 -5 -4.999998"></polygon>
            </g>
        </g>
    </g>
</svg>