<?xml version="1.0" encoding="UTF-8"?>
<svg width="38px" height="40px" viewBox="0 0 38 40" version="1.1" xmlns="http://www.w3.org/2000/svg" xmlns:xlink="http://www.w3.org/1999/xlink">
    <title>img-placeholder-user3</title>
    <defs>
        <path d="M34.21379,14.92285 C28.28694,10.23676 17.66409,3.25659 10.91962,0.62417 C6.25231,-1.19756 1.723187,1.07292 1.039337,6.07243 C-0.040519,13.97548 -0.326597,26.39589 0.40714,33.56437 C0.921021,38.584806 5.32256,41.193631 10.02607,39.468957 C16.371,37.142829 28.32976,30.69066 33.95243,26.27525 C37.90146,23.17404 38.15266,18.03652 34.21379,14.92285" id="path-1"></path>
        <linearGradient x1="-1.52423194e-07%" y1="4.24895984e-06%" x2="-1.52423194e-07%" y2="2559.9999%" id="linearGradient-3">
            <stop stop-color="#FF758C" offset="0%"></stop>
            <stop stop-color="#FF7EB3" offset="100%"></stop>
        </linearGradient>
        <path d="M34.21379,14.92285 C28.28694,10.23676 17.66409,3.25659 10.91962,0.62417 C6.25231,-1.19756 1.723187,1.07292 1.039337,6.07243 C-0.040519,13.97548 -0.326597,26.39589 0.40714,33.56437 C0.921021,38.584806 5.32256,41.193631 10.02607,39.468957 C16.371,37.142829 28.32976,30.69066 33.95243,26.27525 C37.90146,23.17404 38.15266,18.03652 34.21379,14.92285" id="path-4"></path>
        <linearGradient x1="20.4077503%" y1="14.0446687%" x2="60.6171045%" y2="72.3587263%" id="linearGradient-6">
            <stop stop-color="#FF758C" offset="0%"></stop>
            <stop stop-color="#FF7EB3" offset="100%"></stop>
        </linearGradient>
        <path d="M2,4 C3.10457,4 4,3.10457 4,2 C4,0.89543 3.10457,0 2,0 C0.89543,0 0,0.89543 0,2 C0,3.10457 0.89543,4 2,4 Z" id="path-7"></path>
    </defs>
    <g id="Page-1" stroke="none" stroke-width="1" fill="none" fill-rule="evenodd">
        <g id="img-placeholder-user3">
            <g id="Group-7">
                <g id="Group-3">
                    <mask id="mask-2" fill="white">
                        <use xlink:href="#path-1"></use>
                    </mask>
                    <g id="Clip-2"></g>
                    <path d="M34.21379,14.92285 C28.28694,10.23676 17.66409,3.25659 10.91962,0.62417 C6.25231,-1.19756 1.723187,1.07292 1.039337,6.07243 C-0.040519,13.97548 -0.326597,26.39589 0.40714,33.56437 C0.921021,38.584806 5.32256,41.193631 10.02607,39.468957 C16.371,37.142829 28.32976,30.69066 33.95243,26.27525 C37.90146,23.17404 38.15266,18.03652 34.21379,14.92285" id="Fill-1" fill="url(#linearGradient-3)" mask="url(#mask-2)"></path>
                </g>
                <g id="Group-6">
                    <mask id="mask-5" fill="white">
                        <use xlink:href="#path-4"></use>
                    </mask>
                    <g id="Clip-5"></g>
                    <path d="M34.21379,14.92285 C28.28694,10.23676 17.66409,3.25659 10.91962,0.62417 C6.25231,-1.19756 1.723187,1.07292 1.039337,6.07243 C-0.040519,13.97548 -0.326597,26.39589 0.40714,33.56437 C0.921021,38.584806 5.32256,41.193631 10.02607,39.468957 C16.371,37.142829 28.32976,30.69066 33.95243,26.27525 C37.90146,23.17404 38.15266,18.03652 34.21379,14.92285" id="Fill-4" fill="url(#linearGradient-6)" mask="url(#mask-5)"></path>
                </g>
            </g>
            <g id="Group-10" transform="translate(19.000000, 27.000000)">
                <mask id="mask-8" fill="white">
                    <use xlink:href="#path-7"></use>
                </mask>
                <g id="Clip-9"></g>
                <polygon id="Fill-8" fill="#2E2E2E" mask="url(#mask-8)" points="-5 9 9 9 9 -5 -5 -5"></polygon>
            </g>
            <g id="Group-14" transform="translate(7.000000, 4.000000)" stroke="#2E2E2E" stroke-linecap="round" stroke-width="3">
                <path d="M12,19.080108 C12,17.37906 13.367556,16 15.054414,16 C16.741529,16 18.109085,17.37906 18.109085,19.080108" id="Stroke-11"></path>
                <path d="M0.05259257,20.646916 C-0.257469,18.974858 0.83519,17.3656957 2.493557,17.053026 C4.151668,16.7403562 5.74715,17.8424654 6.057468,19.514524" id="Stroke-12"></path>
                <path d="M14.625,2.100095 C17.738281,-0.6040065 21.602051,-0.7260768 22.706055,2.100095 C23.810059,4.926267 21.230957,8.421872 24.400879,11.65625" id="Stroke-13"></path>
            </g>
        </g>
    </g>
</svg>