<?xml version="1.0" encoding="UTF-8"?>
<svg width="24px" height="24px" viewBox="0 0 24 24" version="1.1" xmlns="http://www.w3.org/2000/svg" xmlns:xlink="http://www.w3.org/1999/xlink">
    <title>ic-characters-hide</title>
    <defs>
        <polygon id="path-1" points="0 0 24 0 24 24 0 24"></polygon>
        <path d="M1,1.27 L2.28,0 L19,16.72 L17.73,18 L14.65,14.92 C13.5,15.3 12.28,15.5 11,15.5 C6,15.5 1.73,12.39 0,8 C0.69,6.24 1.79,4.69 3.19,3.46 L1,1.27 Z M11,5 C12.65685,5 14,6.34315 14,8 C14,8.35 13.94,8.69 13.83,9 L10,5.17 C10.31,5.06 10.65,5 11,5 Z M11,0.5 C16,0.5 20.27,3.61 22,8 C21.18,10.08 19.79,11.88 18,13.19 L16.58,11.76 C17.94,10.82 19.06,9.54 19.82,8 C18.17,4.64 14.76,2.5 11,2.5 C9.91,2.5 8.84,2.68 7.84,3 L6.3,1.47 C7.74,0.85 9.33,0.5 11,0.5 Z M2.18,8 C3.83,11.36 7.24,13.5 11,13.5 C11.69,13.5 12.37,13.43 13,13.29 L10.72,11 C9.29,10.85 8.15,9.71 8,8.28 L4.6,4.87 C3.61,5.72 2.78,6.78 2.18,8 Z" id="path-3"></path>
    </defs>
    <g id="Page-1" stroke="none" stroke-width="1" fill="none" fill-rule="evenodd">
        <g id="ic-characters-hide">
            <g id="Group-3">
                <mask id="mask-2" fill="white">
                    <use xlink:href="#path-1"></use>
                </mask>
                <g id="Clip-2"></g>
                <polygon id="Fill-1" fill-opacity="0" fill="#D4D4D4" mask="url(#mask-2)" points="-5 29 29 29 29 -5 -5 -5"></polygon>
            </g>
            <g id="Group-6" transform="translate(1.000000, 4.000000)">
                <mask id="mask-4" fill="white">
                    <use xlink:href="#path-3"></use>
                </mask>
                <g id="Clip-5"></g>
                <polygon id="Fill-4" fill="#A6AFBD" mask="url(#mask-4)" points="-5 23 27 23 27 -5 -5 -5"></polygon>
            </g>
        </g>
    </g>
</svg>