<?xml version="1.0" encoding="UTF-8"?>
<svg width="24px" height="20px" viewBox="0 0 24 20" version="1.1" xmlns="http://www.w3.org/2000/svg" xmlns:xlink="http://www.w3.org/1999/xlink">
    <title>ic-camera</title>
    <defs>
        <path d="M15,0 C15.33435,0 15.64658,0.1671 15.83205,0.4453 L17.53518,3 L21,3 C22.65685,3 24,4.34315 24,6 L24,17 C24,18.656854 22.65685,20 21,20 L3,20 C1.343146,20 0,18.656854 0,17 L0,6 C0,4.34315 1.343146,3 3,3 L6.464816,3 L8.16795,0.4453 C8.353415,0.1671 8.665647,0 9,0 L15,0 Z M14.46482,2 L9.535184,2 L7.83205,4.5547 C7.646585,4.8329 7.334353,5 7,5 L3,5 C2.447715,5 2,5.44772 2,6 L2,17 C2,17.552285 2.447715,18 3,18 L21,18 C21.55228,18 22,17.552285 22,17 L22,6 C22,5.44772 21.55228,5 21,5 L17,5 C16.66565,5 16.35342,4.8329 16.16795,4.5547 L14.46482,2 Z M12,6 C14.76142,6 17,8.23858 17,11 C17,13.761424 14.76142,16 12,16 C9.238576,16 7,13.761424 7,11 C7,8.23858 9.238576,6 12,6 Z M12,8 C10.34315,8 9,9.34315 9,11 C9,12.656854 10.34315,14 12,14 C13.65685,14 15,12.656854 15,11 C15,9.34315 13.65685,8 12,8 Z" id="path-1"></path>
    </defs>
    <g id="Page-1" stroke="none" stroke-width="1" fill="none" fill-rule="evenodd">
        <g id="ic-camera">
            <mask id="mask-2" fill="white">
                <use xlink:href="#path-1"></use>
            </mask>
            <g id="Clip-2"></g>
            <polygon id="Fill-1" fill="#FF758C" mask="url(#mask-2)" points="-5 25 29 25 29 -5 -5 -5"></polygon>
        </g>
    </g>
</svg>