<?xml version="1.0" encoding="UTF-8"?>
<svg width="24px" height="24px" viewBox="0 0 24 24" version="1.1" xmlns="http://www.w3.org/2000/svg" xmlns:xlink="http://www.w3.org/1999/xlink">
    <title>ic-hide-password</title>
    <defs>
        <polygon id="path-1" points="0 0 24 0 24 24 0 24"></polygon>
    </defs>
    <g id="Page-1" stroke="none" stroke-width="1" fill="none" fill-rule="evenodd">
        <g id="ic-hide-password">
            <g id="Group-3">
                <mask id="mask-2" fill="white">
                    <use xlink:href="#path-1"></use>
                </mask>
                <g id="Clip-2"></g>
                <polygon id="Fill-1" fill-opacity="0" fill="#D0021B" mask="url(#mask-2)" points="-5 29 29 29 29 -5 -5 -5"></polygon>
            </g>
            <g id="Group-6" transform="translate(3.000000, 6.000000)" stroke="#FF758C" stroke-width="1.5">
                <path d="M9,12 C12.31371,12 15.31371,10 18,6 C15.31371,2 12.31371,0 9,0 C5.686292,0 2.686292,2 0,6 C2.686292,10 5.686292,12 9,12 Z" id="Stroke-4"></path>
                <path d="M9,9 C10.656854,9 12,7.656854 12,6 C12,4.343146 10.656854,3 9,3 C7.343146,3 6,4.343146 6,6 C6,7.656854 7.343146,9 9,9 Z" id="Stroke-5"></path>
            </g>
        </g>
    </g>
</svg>