<?xml version="1.0" encoding="UTF-8"?>
<svg width="20px" height="20px" viewBox="0 0 20 20" version="1.1" xmlns="http://www.w3.org/2000/svg" xmlns:xlink="http://www.w3.org/1999/xlink">
    <title>ic-thumbs-down-white</title>
    <defs>
        <path d="M17.27073,-0.000165574211 C18.77806,-0.000165574211 20,1.22105 20,2.72728 L20,9.09091 C20,10.59714 18.77806,11.81819 17.27073,11.81819 L15.132,11.819 L11.73378,19.460126 C11.58776,19.788424 11.26196,20 10.90244,20 C8.89266,20 7.26341,18.371945 7.26341,16.363638 L7.26341,13.636356 L3.034247,13.636308 C2.233545,13.645369 1.469257,13.302599 0.94382,12.698789 C0.418383,12.094979 0.184813,11.29105 0.305186,10.49858 L1.560424,2.31825 C1.76449,0.9736 2.928761,-0.01531 4.279409,-0.000165574211 L17.27073,-0.000165574211 Z M14.54146,1e-05 L14.4353641,0.00612606414 C13.982911,0.0586393367 13.63171,0.442882857 13.63171,0.9091 L13.63171,0.9091 L13.631,1.819 L4.269125,1.81813 C3.815481,1.81301 3.42739,2.14264 3.359143,2.59234 L2.103887,10.77279 C2.063832,11.03649 2.141689,11.30447 2.316834,11.50574 C2.49198,11.70701 2.746743,11.82126 3.023945,11.81819 L8.17317,11.81819 C8.67561,11.81819 9.08292,12.225199 9.08292,12.727276 L9.08292,16.363638 C9.08292,17.17506 9.61485,17.862336 10.34926,18.096267 L13.631,10.717 L13.63171,10.90909 C13.63171,11.3753071 13.982911,11.7595593 14.4353641,11.8120738 L14.54146,11.81819 L15.132,11.819 L15.37281,11.27831 C15.4072767,11.2008233 15.4306367,11.1190878 15.4423804,11.0355181 L15.45122,10.90909 L15.45122,10.00001 L17.27073,10.00001 C17.77318,10.00001 18.18049,9.59299 18.18049,9.09091 L18.18049,2.72728 C18.18049,2.2252 17.77318,1.81819 17.27073,1.81819 L15.45122,1.81819 L15.45122,0.9091 C15.45122,0.40702 15.04391,1e-05 14.54146,1e-05 L14.54146,1e-05 Z" id="path-1"></path>
    </defs>
    <g id="Page-1" stroke="none" stroke-width="1" fill="none" fill-rule="evenodd">
        <g id="ic-thumbs-down-white">
            <mask id="mask-2" fill="white">
                <use xlink:href="#path-1"></use>
            </mask>
            <g id="Clip-2"></g>
            <polygon id="Fill-1" fill="#FFFFFF" mask="url(#mask-2)" points="-4.72583 25 25 25 25 -5.00017 -4.72583 -5.00017"></polygon>
        </g>
    </g>
</svg>