<?xml version="1.0" encoding="UTF-8"?>
<svg width="20px" height="20px" viewBox="0 0 20 20" version="1.1" xmlns="http://www.w3.org/2000/svg" xmlns:xlink="http://www.w3.org/1999/xlink">
    <title>ic-thumbs-down</title>
    <defs>
        <path d="M17.27275,4.42403937e-06 C18.77897,4.42403937e-06 20,1.22121 20,2.72742 L20,9.091 C20,10.59722 18.77897,11.81825 17.27275,11.81825 L15.136,11.819 L11.7399,19.460131 C11.59399,19.788426 11.26843,20.0000044 10.90917,20.0000044 C8.90088,20.0000044 7.272839,18.371959 7.272839,16.363668 L7.272839,13.636409 L3.046807,13.636361 C2.246698,13.645422 1.482975,13.302655 0.957927,12.69885 C0.432879,12.095045 0.199483,11.29112 0.319766,10.49866 L1.574075,2.3184 C1.77799,0.97376 2.941399,-0.01514 4.291047,4.42403937e-06 L17.27275,4.42403937e-06 Z M14.5455,0.00018 L14.4394823,0.0062960605 C13.9873623,0.0588092857 13.63642,0.443052143 13.63642,0.90926 L13.63642,0.90926 L13.636,1.819 L4.28077,1.81828 C3.827462,1.81316 3.439659,2.14279 3.371462,2.59248 L2.117135,10.77287 C2.07711,11.03657 2.154909,11.30454 2.329925,11.50581 C2.504941,11.70708 2.759515,11.82133 3.036512,11.81825 L8.18192,11.81825 C8.68399,11.81825 9.091,12.225264 9.091,12.727337 L9.091,16.363668 C9.091,17.175084 9.62254,17.862354 10.3564,18.096283 L13.636,10.717 L13.63642,10.90917 C13.63642,11.3753779 13.9873623,11.7596207 14.4394823,11.8121339 L14.5455,11.81825 L15.136,11.819 L15.37623,11.27838 C15.41067,11.2008933 15.4340167,11.1191622 15.4457544,11.0355956 L15.45459,10.90917 L15.45459,10.00009 L17.27275,10.00009 C17.77482,10.00009 18.18183,9.59308 18.18183,9.091 L18.18183,2.72742 C18.18183,2.22535 17.77482,1.81834 17.27275,1.81834 L15.45459,1.81834 L15.45459,0.90926 C15.45459,0.40719 15.04758,0.00018 14.5455,0.00018 L14.5455,0.00018 Z" id="path-1"></path>
    </defs>
    <g id="Page-1" stroke="none" stroke-width="1" fill="none" fill-rule="evenodd">
        <g id="ic-thumbs-down">
            <mask id="mask-2" fill="white">
                <use xlink:href="#path-1"></use>
            </mask>
            <g id="Clip-2"></g>
            <polygon id="Fill-1" fill="#505050" mask="url(#mask-2)" points="-4.711227 25 25.000003 25 25.000003 -5 -4.711227 -5"></polygon>
        </g>
    </g>
</svg>