<?xml version="1.0" encoding="UTF-8"?>
<svg width="10px" height="12px" viewBox="0 0 10 12" version="1.1" xmlns="http://www.w3.org/2000/svg" xmlns:xlink="http://www.w3.org/1999/xlink">
    <title>ic-thumbs-down-fill-small</title>
    <defs>
        <path d="M6.886896,0.400089876 C6.600343,0.400089876 6.368045,0.63249 6.368045,0.91904 L6.368045,0.91904 L6.368045,6.626399 C6.368045,6.912953 6.600343,7.14525 6.886896,7.14525 L6.886896,7.14525 L8.27223,7.14525 C8.32292294,7.14615129 8.37321021,7.14478817 8.42298789,7.14124822 L8.479,7.135 L6.535625,11.50678 C6.452349,11.694152 6.266537,11.814906 6.061493,11.814906 C4.91528,11.814906 3.986091,10.885717 3.986091,9.739503 L3.986091,8.182945 L1.574122,8.182918 C1.117467,8.188089 0.68158,7.992458 0.381913,7.647842 C0.082247,7.303226 -0.050962,6.844396 0.017689,6.392106 L0.733574,1.72329 C0.849956,0.95585 1.513962,0.39145 2.284261,0.400089876 L6.886896,0.400089876 Z M8.26305,0.40027 C9.13401,0.38487 9.87855,1.02396 9.99532,1.8872 L10,1.95674 L10,5.588698 L9.99532,5.658246 C9.89228765,6.41992129 9.30050702,7.00709469 8.57068824,7.12418542 L8.479,7.135 L8.61103,6.837125 C8.63068333,6.79289833 8.64400778,6.74624989 8.65070704,6.69855478 L8.65575,6.626399 L8.65575,0.91904 C8.65575,0.63249 8.42345,0.40019 8.1369,0.40019 L8.136,0.401 L8.26305,0.40027 Z" id="path-1"></path>
    </defs>
    <g id="Page-1" stroke="none" stroke-width="1" fill="none" fill-rule="evenodd">
        <g id="ic-thumbs-down-fill-small">
            <mask id="mask-2" fill="white">
                <use xlink:href="#path-1"></use>
            </mask>
            <g id="Clip-2"></g>
            <polygon id="Fill-1" fill="#C8C8C8" mask="url(#mask-2)" points="-5 16.814906 15 16.814906 15 -4.600004 -5 -4.600004"></polygon>
        </g>
    </g>
</svg>