<?xml version="1.0" encoding="UTF-8"?>
<svg width="10px" height="12px" viewBox="0 0 10 12" version="1.1" xmlns="http://www.w3.org/2000/svg" xmlns:xlink="http://www.w3.org/1999/xlink">
    <title>ic-thumbs-up-fill-small</title>
    <defs>
        <path d="M6.061493,0.4 C6.266537,0.4 6.452349,0.52075 6.535625,0.70813 L6.535625,0.70813 L8.479,5.081 L8.42298789,5.07365777 C8.37321021,5.07011782 8.32292294,5.06875471 8.27223,5.069656 L6.886896,5.069656 C6.600343,5.069656 6.368045,5.301953 6.368045,5.588507 L6.368045,11.295864 C6.368045,11.582417 6.600343,11.8148142 6.886896,11.8148142 L2.284261,11.8148142 C1.513962,11.823456 0.849956,11.259052 0.733574,10.491612 L0.733574,10.491612 L0.017689,5.8228 C-0.050962,5.37051 0.082247,4.91168 0.381913,4.567064 C0.68158,4.222447 1.117467,4.026816 1.574122,4.031988 L1.574122,4.031988 L3.986091,4.03196 L3.986091,2.4754 C3.986091,1.32919 4.91528,0.4 6.061493,0.4 Z M8.479,5.081 L8.57068824,5.09072055 C9.30050702,5.20781111 9.89228765,5.79498382 9.99532,6.55666 L9.99532,6.55666 L10,6.626208 L10,10.258162 L9.99532,10.327711 C9.87855,11.190943 9.13401,11.830036 8.26305,11.814633 L8.26305,11.814633 L8.1369,11.814714 C8.42345,11.814714 8.65575,11.582417 8.65575,11.295864 L8.65575,5.588507 C8.65575,5.51591 8.64051,5.444121 8.61103,5.377781 L8.479,5.081 Z" id="path-1"></path>
    </defs>
    <g id="Page-1" stroke="none" stroke-width="1" fill="none" fill-rule="evenodd">
        <g id="ic-thumbs-up-fill-small">
            <mask id="mask-2" fill="white">
                <use xlink:href="#path-1"></use>
            </mask>
            <g id="Clip-2"></g>
            <polygon id="Fill-1" fill="#C8C8C8" mask="url(#mask-2)" points="-5 16.814906 15 16.814906 15 -4.600004 -5 -4.600004"></polygon>
        </g>
    </g>
</svg>