<?xml version="1.0" encoding="UTF-8"?>
<svg width="20px" height="20px" viewBox="0 0 20 20" version="1.1" xmlns="http://www.w3.org/2000/svg" xmlns:xlink="http://www.w3.org/1999/xlink">
    <title>ic-thumbs-up</title>
    <defs>
        <path d="M4.623767,8.72162 C4.572107,8.83785 4.545415,8.96363 4.545415,9.09083 L4.545415,9.09083 L4.545,10 L2.727249,9.99991 C2.225176,9.99991 1.818166,10.40692 1.818166,10.909 L1.818166,17.272576 C1.818166,17.774648 2.225176,18.181659 2.727249,18.181659 L4.545,18.182 L4.545415,19.090742 C4.545415,19.5569517 4.8963573,19.9411956 5.34847966,19.9937089 L5.454498,20 L2.727249,20 C1.221031,20 0,18.778794 0,17.272576 L0,10.909 C0,9.40278 1.221031,8.18175 2.727249,8.18175 L4.863,8.182 L8.2601,0.53987 C8.40601,0.21157 8.73157,0 9.09083,0 C11.09912,0 12.72716,1.62804 12.72716,3.63633 L12.72716,6.36359 L16.95319,6.36364 C17.7533,6.35458 18.51702,6.69734 19.04207,7.30115 C19.56712,7.90496 19.80052,8.70888 19.68023,9.50134 L18.42593,17.681605 C18.22201,19.026242 17.0586,20.01514 15.70895,20 L5.454498,20 L5.56051616,19.9937089 C6.01263784,19.9411956 6.363581,19.5569517 6.363581,19.090742 L6.363581,19.090742 L6.363581,18.181776 L15.71923,18.181717 C16.17254,18.186841 16.56034,17.857209 16.62854,17.407518 L17.88286,9.22713 C17.92289,8.96343 17.84509,8.69546 17.67007,8.49419 C17.49506,8.29292 17.24048,8.17867 16.96349,8.18175 L11.81808,8.18175 C11.31601,8.18175 10.909,7.77474 10.909,7.27266 L10.909,3.63633 C10.909,2.82492 10.37746,2.13765 9.6436,1.90372 L6.363581,9.28375 L6.363581,9.09083 C6.363581,8.58876 5.95657,8.18175 5.454498,8.18175 L5.454498,8.18175 L4.863,8.182 L4.623767,8.72162 Z" id="path-1"></path>
    </defs>
    <g id="Page-1" stroke="none" stroke-width="1" fill="none" fill-rule="evenodd">
        <g id="ic-thumbs-up">
            <mask id="mask-2" fill="white">
                <use xlink:href="#path-1"></use>
            </mask>
            <g id="Clip-2"></g>
            <polygon id="Fill-1" fill="#505050" mask="url(#mask-2)" points="-5 25 24.71123 25 24.71123 -5 -5 -5"></polygon>
        </g>
    </g>
</svg>