<?xml version="1.0" encoding="UTF-8"?>
<svg width="20px" height="20px" viewBox="0 0 20 20" version="1.1" xmlns="http://www.w3.org/2000/svg" xmlns:xlink="http://www.w3.org/1999/xlink">
    <title>ic-thumbs-up-white</title>
    <defs>
        <path d="M4.627193,8.72169 C4.575495,8.83792 4.548782,8.96371 4.548782,9.09091 L4.548782,9.09091 L4.548,10 L2.729269,10 C2.226825,10 1.819513,10.40701 1.819513,10.90909 L1.819513,17.27272 C1.819513,17.774797 2.226825,18.18181 2.729269,18.18181 L4.548,18.182 L4.548782,19.090901 C4.548782,19.5571154 4.89998469,19.9413613 5.3524421,19.9938749 L5.458539,20.0001665 L2.729269,20.0001665 C1.221935,20.0001665 0,18.77895 0,17.27272 L0,10.90909 C0,9.40286 1.221935,8.18181 2.729269,8.18181 L4.867,8.182 L8.26622,0.53987 C8.41224,0.21158 8.73804,0 9.09756,0 C11.10734,0 12.73659,1.62805 12.73659,3.63636 L12.73659,6.36364 L16.96575,6.36369 C17.76645,6.35463 18.53074,6.6974 19.05618,7.30121 C19.58162,7.90502 19.81519,8.70895 19.69481,9.50142 L18.43958,17.681752 C18.23551,19.026401 17.07124,20.015307 15.72059,20.0001665 L5.458539,20.0001665 L5.5646357,19.9938749 C6.01709231,19.9413613 6.368295,19.5571154 6.368295,19.090901 L6.368295,19.090901 L6.368295,18.181927 L15.73088,18.181868 C16.18452,18.186993 16.57261,17.857358 16.64086,17.407663 L17.89611,9.22721 C17.93617,8.96351 17.85831,8.69553 17.68317,8.49426 C17.50802,8.29299 17.25326,8.17874 16.97605,8.18181 L11.82683,8.18181 C11.32439,8.18181 10.91708,7.7748 10.91708,7.27272 L10.91708,3.63636 C10.91708,2.82494 10.38515,2.13766 9.65074,1.90373 L6.368295,9.28383 L6.368295,9.09091 C6.368295,8.58883 5.960983,8.18181 5.458539,8.18181 L5.458539,8.18181 L4.867,8.182 L4.627193,8.72169 Z" id="path-1"></path>
    </defs>
    <g id="Page-1" stroke="none" stroke-width="1" fill="none" fill-rule="evenodd">
        <g id="ic-thumbs-up-white">
            <mask id="mask-2" fill="white">
                <use xlink:href="#path-1"></use>
            </mask>
            <g id="Clip-2"></g>
            <polygon id="Fill-1" fill="#FFFFFF" mask="url(#mask-2)" points="-5 25.000167 24.72583 25.000167 24.72583 -5.000003 -5 -5.000003"></polygon>
        </g>
    </g>
</svg>